<?xml version="1.0" encoding="utf-8"?>
<!-- Generator: Adobe Illustrator 16.0.0, SVG Export Plug-In . SVG Version: 6.00 Build 0)  -->
<!DOCTYPE svg PUBLIC "-//W3C//DTD SVG 1.1//EN" "http://www.w3.org/Graphics/SVG/1.1/DTD/svg11.dtd">
<svg version="1.1" id="Layer_1" xmlns="http://www.w3.org/2000/svg" xmlns:xlink="http://www.w3.org/1999/xlink" x="0px" y="0px"
	 width="1713.927px" height="1009.047px" viewBox="0 0 1713.927 1009.047" enable-background="new 0 0 1713.927 1009.047"
	 xml:space="preserve">
<g id="XMLID_1_">
	<g>
	</g>
	<g>
		<path fill="none" stroke="#D8D8D8" stroke-linecap="round" stroke-linejoin="bevel" stroke-miterlimit="10" d="M894.488,667.724
			c0.271-0.243,0.568-0.514,0.865-0.812"/>
		<path fill="none" stroke="#D8D8D8" stroke-linecap="round" stroke-linejoin="bevel" stroke-miterlimit="10" d="M819.452,688.228
			c0.054,0,0.108-0.054,0.162-0.162"/>
		<path fill="none" stroke="#D8D8D8" stroke-linecap="round" stroke-linejoin="bevel" stroke-miterlimit="10" d="M818.234,689.121
			c0.027-0.107,0.055-0.162,0.055-0.189c-0.027-0.054-0.055-0.081-0.081-0.107c-0.027-0.055-0.055-0.081-0.108-0.108"/>
		<path fill="none" stroke="#D8D8D8" stroke-linecap="round" stroke-linejoin="bevel" stroke-miterlimit="10" d="M792.781,697.398
			c-0.217,0.947-0.541,2.245-0.649,2.354c-0.055,0.054-0.136,0.108-0.189,0.189c-0.081,0.081-0.162,0.189-0.243,0.271
			c-0.189,0.271-0.325,0.568-0.217,0.758"/>
		<path fill="none" stroke="#D8D8D8" stroke-linecap="round" stroke-linejoin="bevel" stroke-miterlimit="10" d="M784.477,692.448
			c0.054-0.054,0.108-0.135,0.135-0.216"/>
		<path fill="none" stroke="#D8D8D8" stroke-linecap="round" stroke-linejoin="bevel" stroke-miterlimit="10" d="M777.309,697.668
			c-0.162-0.135-0.352-0.379-0.515-0.622"/>
		<path fill="none" stroke="#D8D8D8" stroke-linecap="round" stroke-linejoin="bevel" stroke-miterlimit="10" d="M777.498,696.993
			c0.189,0.297,0.324,0.567,0.189,0.676h-0.027"/>
		<path fill="none" stroke="#D8D8D8" stroke-linecap="round" stroke-linejoin="bevel" stroke-miterlimit="10" d="M777.064,696.371
			c0.082,0.107,0.163,0.243,0.271,0.378"/>
		<path fill="none" stroke="#D8D8D8" stroke-linecap="round" stroke-linejoin="bevel" stroke-miterlimit="10" d="M775.117,695.099
			c0.081,0.081,0.162,0.243,0.243,0.405c0.055,0.081,0.108,0.163,0.163,0.217"/>
		<path fill="none" stroke="#D8D8D8" stroke-linecap="round" stroke-linejoin="bevel" stroke-miterlimit="10" d="M771.466,694.477
			c-0.027-0.027-0.055-0.055-0.055-0.081h-0.026"/>
		<path fill="none" stroke="#D8D8D8" stroke-linecap="round" stroke-linejoin="bevel" stroke-miterlimit="10" d="M751.286,700.752
			c0,0.162,0,0.324-0.054,0.46"/>
		<path fill="none" stroke="#D8D8D8" stroke-linecap="round" stroke-linejoin="bevel" stroke-miterlimit="10" d="M751.124,700.292
			c0.081,0.054,0.136,0.108,0.189,0.189c0,0.054,0,0.108-0.027,0.162"/>
		<path fill="none" stroke="#D8D8D8" stroke-linecap="round" stroke-linejoin="bevel" stroke-miterlimit="10" d="M735.11,697.019
			c0.108,0.217,0.217,0.406,0.406,0.596"/>
		<path fill="none" stroke="#D8D8D8" stroke-linecap="round" stroke-linejoin="bevel" stroke-miterlimit="10" d="M733.596,695.072
			c0.162,0.136,0.325,0.271,0.433,0.406"/>
		<path fill="none" stroke="#D8D8D8" stroke-linecap="round" stroke-linejoin="bevel" stroke-miterlimit="10" d="M731.783,693.557
			c0.298,0.271,0.596,0.514,0.92,0.758"/>
		<path fill="none" stroke="#D8D8D8" stroke-linecap="round" stroke-linejoin="bevel" stroke-miterlimit="10" d="M717.149,677.652
			c0.108,0.135,0.162,0.324,0.217,0.487"/>
		<path fill="none" stroke="#D8D8D8" stroke-linecap="round" stroke-linejoin="bevel" stroke-miterlimit="10" d="M712.605,674.514
			c-0.108,0.081-0.189,0.189-0.271,0.271"/>
		<path fill="none" stroke="#D8D8D8" stroke-linecap="round" stroke-linejoin="bevel" stroke-miterlimit="10" d="M713.633,673.215
			h0.027c0,0.055-0.027,0.136-0.081,0.217c-0.081,0.135-0.243,0.298-0.406,0.487"/>
		<path fill="none" stroke="#D8D8D8" stroke-linecap="round" stroke-linejoin="bevel" stroke-miterlimit="10" d="M711.334,680.086
			c-0.189-0.406-0.433-0.758-0.622-1.109"/>
		<path fill="none" stroke="#D8D8D8" stroke-linecap="round" stroke-linejoin="bevel" stroke-miterlimit="10" d="M709.63,691.583
			c0.216-0.217,0.405-0.487,0.568-0.784"/>
		<path fill="none" stroke="#D8D8D8" stroke-linecap="round" stroke-linejoin="bevel" stroke-miterlimit="10" d="M699.676,694.125
			c0.189-0.055,0.107-0.596,0.054-0.73"/>
		<path fill="none" stroke="#D8D8D8" stroke-linecap="round" stroke-linejoin="bevel" stroke-miterlimit="10" d="M692.94,696.776
			c-0.027-0.054-0.082-0.081-0.108-0.108"/>
		<path fill="none" stroke="#D8D8D8" stroke-linecap="round" stroke-linejoin="bevel" stroke-miterlimit="10" d="M693.508,698.832
			c-0.514-0.405-0.405-0.974-0.405-1.46"/>
		<path fill="none" stroke="#D8D8D8" stroke-linecap="round" stroke-linejoin="bevel" stroke-miterlimit="10" d="M685.907,691.42
			c0.324-0.217,0.541-0.677,0.757-1.001"/>
		<path fill="none" stroke="#D8D8D8" stroke-linecap="round" stroke-linejoin="bevel" stroke-miterlimit="10" d="M685.961,686.064
			c0.108,0.189,0.244,0.352,0.379,0.515"/>
		<path fill="none" stroke="#D8D8D8" stroke-linecap="round" stroke-linejoin="bevel" stroke-miterlimit="10" d="M686.583,684.198
			c-0.054,0.162-0.081,0.271-0.162,0.406c-0.054,0.135-0.162,0.271-0.298,0.459c-0.054,0.108-0.135,0.217-0.216,0.325
			c-0.108,0.216-0.055,0.433,0.027,0.649"/>
		<path fill="none" stroke="#D8D8D8" stroke-linecap="round" stroke-linejoin="bevel" stroke-miterlimit="10" d="M685.609,683.495
			c0.055,0.081,0.081,0.135,0.136,0.189"/>
		<path fill="none" stroke="#D8D8D8" stroke-linecap="round" stroke-linejoin="bevel" stroke-miterlimit="10" d="M673.438,676.678
			c-0.082,0.243-0.163,0.433-0.189,0.514"/>
		<path fill="none" stroke="#D8D8D8" stroke-linecap="round" stroke-linejoin="bevel" stroke-miterlimit="10" d="M673.464,675.867
			c0.081,0,0.108,0.027,0.136,0.054"/>
		<path fill="none" stroke="#D8D8D8" stroke-linecap="round" stroke-linejoin="bevel" stroke-miterlimit="10" d="M662.969,663.938
			c0.027,0.135,0.054,0.297-0.027,0.459c-0.054,0.108-0.162,0.217-0.271,0.298"/>
		<path fill="none" stroke="#D8D8D8" stroke-linecap="round" stroke-linejoin="bevel" stroke-miterlimit="10" d="M663.104,663.261
			c-0.108,0.162-0.163,0.324-0.163,0.46"/>
		<path fill="none" stroke="#D8D8D8" stroke-linecap="round" stroke-linejoin="bevel" stroke-miterlimit="10" d="M667.216,657.337
			h0.027c-0.055,0.243-0.027,0.433,0.054,0.568"/>
		<path fill="none" stroke="#D8D8D8" stroke-linecap="round" stroke-linejoin="bevel" stroke-miterlimit="10" d="M670.895,656.715
			c-0.027,0.054-0.108,0.081-0.217,0.108"/>
		<path fill="none" stroke="#D8D8D8" stroke-linecap="round" stroke-linejoin="bevel" stroke-miterlimit="10" d="M670.488,652.875
			c-0.107-0.217-0.297-0.434-0.486-0.622c-0.108-0.136-0.217-0.244-0.325-0.325"/>
		<path fill="none" stroke="#D8D8D8" stroke-linecap="round" stroke-linejoin="bevel" stroke-miterlimit="10" d="M668.758,644.299
			c0.054,0.081,0.081,0.217,0.026,0.324c-0.081,0.163-0.378,0.623-0.514,0.947"/>
		<path fill="none" stroke="#D8D8D8" stroke-linecap="round" stroke-linejoin="bevel" stroke-miterlimit="10" d="M670.056,642.866
			c-0.162,0.162-0.216,0.406-0.216,0.622"/>
		<path fill="none" stroke="#D8D8D8" stroke-linecap="round" stroke-linejoin="bevel" stroke-miterlimit="10" d="M677.359,645.138
			c-0.162-0.515-0.514-1.109-1.299-1.84"/>
		<path fill="none" stroke="#D8D8D8" stroke-linecap="round" stroke-linejoin="bevel" stroke-miterlimit="10" d="M677.63,646.517
			c-0.027-0.162-0.054-0.352-0.081-0.541"/>
		<path fill="none" stroke="#D8D8D8" stroke-linecap="round" stroke-linejoin="bevel" stroke-miterlimit="10" d="M677.9,647.383
			c-0.108-0.217-0.162-0.406-0.217-0.596"/>
		<path fill="none" stroke="#D8D8D8" stroke-linecap="round" stroke-linejoin="bevel" stroke-miterlimit="10" d="M680.605,651.819
			c-0.027-0.188-0.027-0.378-0.162-0.567"/>
		<path fill="none" stroke="#D8D8D8" stroke-linecap="round" stroke-linejoin="bevel" stroke-miterlimit="10" d="M681.984,653.334
			c-0.107-0.108-0.216-0.189-0.324-0.271"/>
		<path fill="none" stroke="#D8D8D8" stroke-linecap="round" stroke-linejoin="bevel" stroke-miterlimit="10" d="M680.146,653.55
			c-0.054-0.108-0.162-0.243-0.243-0.352"/>
		<path fill="none" stroke="#D8D8D8" stroke-linecap="round" stroke-linejoin="bevel" stroke-miterlimit="10" d="M682.499,658.582
			c-0.136-0.135-0.217-0.514-0.271-0.838"/>
		<path fill="none" stroke="#D8D8D8" stroke-linecap="round" stroke-linejoin="bevel" stroke-miterlimit="10" d="M682.607,657.608
			c0.054,0.136,0.081,0.271,0.107,0.405"/>
		<path fill="none" stroke="#D8D8D8" stroke-linecap="round" stroke-linejoin="bevel" stroke-miterlimit="10" d="M682.472,657.148
			c0,0.027,0.027,0.136,0.081,0.271"/>
		<path fill="none" stroke="#D8D8D8" stroke-linecap="round" stroke-linejoin="bevel" stroke-miterlimit="10" d="M678.414,645.598
			c0.081,0.189,0.217,0.46,0.243,0.541c0.108,0.405,0.298,1.055,0.487,1.623c0.081,0.216,0.162,0.433,0.243,0.622
			c0.055,0.081,0.108,0.162,0.136,0.243c0.946,1.704,2.109,3.273,3.138,4.923"/>
		<path fill="none" stroke="#D8D8D8" stroke-linecap="round" stroke-linejoin="bevel" stroke-miterlimit="10" d="M670.029,641.027
			c0.162-0.027,0.27-0.055,0.378-0.082"/>
		<path fill="none" stroke="#D8D8D8" stroke-linecap="round" stroke-linejoin="bevel" stroke-miterlimit="10" d="M668.974,641.243
			c0.055-0.054,0.136-0.081,0.217-0.108"/>
		<path fill="none" stroke="#D8D8D8" stroke-linecap="round" stroke-linejoin="bevel" stroke-miterlimit="10" d="M666.756,643.083
			c0.73-0.596,1.461-1.163,2.137-1.812"/>
		<path fill="none" stroke="#D8D8D8" stroke-linecap="round" stroke-linejoin="bevel" stroke-miterlimit="10" d="M664.402,644.732
			c0.784-0.514,1.569-1.082,2.326-1.649"/>
		<path fill="none" stroke="#D8D8D8" stroke-linecap="round" stroke-linejoin="bevel" stroke-miterlimit="10" d="M659.425,647.68
			c0.839-0.459,1.678-0.919,2.517-1.406"/>
		<path fill="none" stroke="#D8D8D8" stroke-linecap="round" stroke-linejoin="bevel" stroke-miterlimit="10" d="M598.536,642.244
			c-0.081-0.081-0.135-0.162-0.216-0.243"/>
		<path fill="none" stroke="#D8D8D8" stroke-linecap="round" stroke-linejoin="bevel" stroke-miterlimit="10" d="M587.365,648.952
			c-0.108-0.271-0.244-0.514-0.163-0.812c0.108-0.352,0.46-0.865,0.839-1.406"/>
		<path fill="none" stroke="#D8D8D8" stroke-linecap="round" stroke-linejoin="bevel" stroke-miterlimit="10" d="M584.741,652.793
			c0.054,0.054,0.108,0.107,0.162,0.162"/>
		<path fill="none" stroke="#D8D8D8" stroke-linecap="round" stroke-linejoin="bevel" stroke-miterlimit="10" d="M580.9,651.467
			c0.027-0.054,0.081-0.107,0.162-0.162"/>
		<path fill="none" stroke="#D8D8D8" stroke-linecap="round" stroke-linejoin="bevel" stroke-miterlimit="10" d="M580.575,653.226
			c0.081-0.081,0.162-0.162,0.216-0.217c0.108-0.135,0.081-0.405,0.027-0.703"/>
		<path fill="none" stroke="#D8D8D8" stroke-linecap="round" stroke-linejoin="bevel" stroke-miterlimit="10" d="M577.41,655.768
			c0.027-0.081,0.054-0.216,0.081-0.352"/>
		<path fill="none" stroke="#D8D8D8" stroke-linecap="round" stroke-linejoin="bevel" stroke-miterlimit="10" d="M559.584,656.877
			h0.027c-0.027,0.136,0.135,0.487,0.352,0.893"/>
		<path fill="none" stroke="#D8D8D8" stroke-linecap="round" stroke-linejoin="bevel" stroke-miterlimit="10" d="M555.175,655.606
			c0.081-0.297,0.162-0.567,0.244-0.757"/>
		<path fill="none" stroke="#D8D8D8" stroke-linecap="round" stroke-linejoin="bevel" stroke-miterlimit="10" d="M554.715,657.203
			c0.081-0.217,0.163-0.434,0.216-0.649"/>
		<path fill="none" stroke="#D8D8D8" stroke-linecap="round" stroke-linejoin="bevel" stroke-miterlimit="10" d="M547.223,659.474
			c0.054,0.081,0.108,0.162,0.162,0.217"/>
		<path fill="none" stroke="#D8D8D8" stroke-linecap="round" stroke-linejoin="bevel" stroke-miterlimit="10" d="M555.446,651.116
			c-0.081,0-0.162,0.027-0.271,0.081c-0.162,0.081-0.297,0.217-0.406,0.352"/>
		<path fill="none" stroke="#D8D8D8" stroke-linecap="round" stroke-linejoin="bevel" stroke-miterlimit="10" d="M556.988,650.819
			c-0.216,0.135-0.406,0.216-0.595,0.243"/>
		<path fill="none" stroke="#D8D8D8" stroke-linecap="round" stroke-linejoin="bevel" stroke-miterlimit="10" d="M559.503,647.789
			c-0.108,0.081-0.216,0.189-0.298,0.298c-0.108,0.108-0.216,0.243-0.324,0.379c-0.217,0.271-0.406,0.567-0.623,0.865"/>
		<path fill="none" stroke="#D8D8D8" stroke-linecap="round" stroke-linejoin="bevel" stroke-miterlimit="10" d="M571.703,640.837
			c-0.243,0.433-0.595,0.974-1,1.353"/>
		<path fill="none" stroke="#D8D8D8" stroke-linecap="round" stroke-linejoin="bevel" stroke-miterlimit="10" d="M572,640.35
			c-0.027,0.054-0.082,0.136-0.135,0.217"/>
		<path fill="none" stroke="#D8D8D8" stroke-linecap="round" stroke-linejoin="bevel" stroke-miterlimit="10" d="M525.15,647.87
			c0.027,0.298,0.054,0.622,0.108,0.92"/>
		<path fill="none" stroke="#D8D8D8" stroke-linecap="round" stroke-linejoin="bevel" stroke-miterlimit="10" d="M524.447,646.112
			c0.162,0.162,0.297,0.433,0.406,0.676"/>
		<path fill="none" stroke="#D8D8D8" stroke-linecap="round" stroke-linejoin="bevel" stroke-miterlimit="10" d="M521.12,663.721
			c0.135-0.162,0.244-0.324,0.325-0.487c0.865-1.623,1.569-3.598,2.164-5.626"/>
		<path fill="none" stroke="#D8D8D8" stroke-linecap="round" stroke-linejoin="bevel" stroke-miterlimit="10" d="M507.974,673.243
			c0-0.027,0.027-0.081,0.054-0.108"/>
		<path fill="none" stroke="#D8D8D8" stroke-linecap="round" stroke-linejoin="bevel" stroke-miterlimit="10" d="M514.871,673.432
			c0.162-0.108,0.325-0.189,0.406-0.298"/>
		<path fill="none" stroke="#D8D8D8" stroke-linecap="round" stroke-linejoin="bevel" stroke-miterlimit="10" d="M517.901,672.729
			c-0.163-0.027-0.298-0.055-0.433-0.081"/>
		<path fill="none" stroke="#D8D8D8" stroke-linecap="round" stroke-linejoin="bevel" stroke-miterlimit="10" d="M518.685,672.837
			c-0.081,0-0.297-0.055-0.541-0.082"/>
		<path fill="none" stroke="#D8D8D8" stroke-linecap="round" stroke-linejoin="bevel" stroke-miterlimit="10" d="M519.848,673.567
			c0.027,0,0.054-0.026,0.081-0.081l-0.027-0.026"/>
		<path fill="none" stroke="#D8D8D8" stroke-linecap="round" stroke-linejoin="bevel" stroke-miterlimit="10" d="M517.549,675.65
			c0.054,0.271,0.135,0.649,0.271,0.974"/>
		<path fill="none" stroke="#D8D8D8" stroke-linecap="round" stroke-linejoin="bevel" stroke-miterlimit="10" d="M510.597,678.707
			c-0.081,0.081-0.135,0.162-0.189,0.271"/>
		<path fill="none" stroke="#D8D8D8" stroke-linecap="round" stroke-linejoin="bevel" stroke-miterlimit="10" d="M510.678,678.166
			c0.054,0.027,0.108,0.108,0.163,0.244"/>
		<path fill="none" stroke="#D8D8D8" stroke-linecap="round" stroke-linejoin="bevel" stroke-miterlimit="10" d="M507.243,679.708
			c0.081-0.081,0.054-0.189,0-0.298"/>
		<path fill="none" stroke="#D8D8D8" stroke-linecap="round" stroke-linejoin="bevel" stroke-miterlimit="10" d="M497.316,666.101
			c0.027,0,0.054,0,0.081,0.082c0.081,0.054,0.054,0.324,0,0.622"/>
		<path fill="none" stroke="#D8D8D8" stroke-linecap="round" stroke-linejoin="bevel" stroke-miterlimit="10" d="M495.53,668.78
			c0.027,0,0.027,0,0.027,0c0.054-0.081-0.054-0.271-0.163-0.46"/>
		<path fill="none" stroke="#D8D8D8" stroke-linecap="round" stroke-linejoin="bevel" stroke-miterlimit="10" d="M494.502,669.591
			c0.108-0.136,0.217-0.271,0.352-0.434"/>
		<path fill="none" stroke="#D8D8D8" stroke-linecap="round" stroke-linejoin="bevel" stroke-miterlimit="10" d="M493.88,670.375
			c0.081-0.108,0.189-0.243,0.352-0.433"/>
		<path fill="none" stroke="#D8D8D8" stroke-linecap="round" stroke-linejoin="bevel" stroke-miterlimit="10" d="M478.625,681.763
			c0.054-0.054,0.108-0.081,0.189-0.135"/>
		<path fill="none" stroke="#D8D8D8" stroke-linecap="round" stroke-linejoin="bevel" stroke-miterlimit="10" d="M479.49,681.925
			c-0.135-0.081-0.378,0-0.595,0.082"/>
		<path fill="none" stroke="#D8D8D8" stroke-linecap="round" stroke-linejoin="bevel" stroke-miterlimit="10" d="M462.259,696.884
			c0.108-0.136,0.216-0.243,0.325-0.379"/>
		<path fill="none" stroke="#D8D8D8" stroke-linecap="round" stroke-linejoin="bevel" stroke-miterlimit="10" d="M390.145,723.691
			c0.378,0.216,0.73,0.567,1.082,0.946c0.162,0.162,0.352,0.352,0.541,0.541"/>
		<path fill="none" stroke="#D8D8D8" stroke-linecap="round" stroke-linejoin="bevel" stroke-miterlimit="10" d="M383.517,719.985
			c0.352,0.514,0.595,1.082,0.974,1.515"/>
		<path fill="none" stroke="#D8D8D8" stroke-linecap="round" stroke-linejoin="bevel" stroke-miterlimit="10" d="M377.269,712.383
			h0.027c0.216,0.189,0.352,0.406,0.46,0.649c0.108,0.244,0.189,0.541,0.27,0.839"/>
		<path fill="none" stroke="#D8D8D8" stroke-linecap="round" stroke-linejoin="bevel" stroke-miterlimit="10" d="M351.869,700.969
			c0.081,0.054,0.135,0.135,0.189,0.188"/>
		<path fill="none" stroke="#D8D8D8" stroke-linecap="round" stroke-linejoin="bevel" stroke-miterlimit="10" d="M289.546,691.501
			c0.189,0.757,0.459,1.434,0.865,2.028c0.108,0.162,0.271,0.325,0.406,0.433"/>
		<path fill="none" stroke="#D8D8D8" stroke-linecap="round" stroke-linejoin="bevel" stroke-miterlimit="10" d="M282.973,678.003
			c0.46-0.541,0.893-1.082,1.19-1.461"/>
		<path fill="none" stroke="#D8D8D8" stroke-linecap="round" stroke-linejoin="bevel" stroke-miterlimit="10" d="M238.963,670.051
			c0.216,1.136,0.46,2.271,0.92,3.381c0.406,1.027,1.001,1.947,1.704,2.732"/>
		<path fill="none" stroke="#D8D8D8" stroke-linecap="round" stroke-linejoin="bevel" stroke-miterlimit="10" d="M236.583,662.558
			c-0.108,0.162-0.216,0.352-0.271,0.514c0.054,1.137,0.893,1.812,1.461,2.678"/>
		<path fill="none" stroke="#D8D8D8" stroke-linecap="round" stroke-linejoin="bevel" stroke-miterlimit="10" d="M208.586,656.147
			c0.163,0.244,0.298,0.515,0.46,0.758c0.081,0.135,0.162,0.243,0.271,0.352"/>
		<path fill="none" stroke="#D8D8D8" stroke-linecap="round" stroke-linejoin="bevel" stroke-miterlimit="10" d="M208.018,655.444
			c0.108,0.081,0.216,0.189,0.325,0.324"/>
		<path fill="none" stroke="#D8D8D8" stroke-linecap="round" stroke-linejoin="bevel" stroke-miterlimit="10" d="M54.321,643.542
			c0.676-0.136,1.353-0.271,2.002-0.434"/>
		<path fill="none" stroke="#D8D8D8" stroke-linecap="round" stroke-linejoin="bevel" stroke-miterlimit="10" d="M15.288,604.644
			c0.379,0.434,0.812,0.866,1.19,1.326c0.271,0.297,0.487,0.595,0.676,0.919"/>
		<path fill="none" stroke="#D8D8D8" stroke-linecap="round" stroke-linejoin="bevel" stroke-miterlimit="10" d="M14.422,591.714
			c0.379,0.406,0.649,0.785,0.812,1.055c0.054,0.108,0.108,0.189,0.135,0.271c0.189,0.541-0.189,1.948-0.595,3.598"/>
		<path fill="none" stroke="#D8D8D8" stroke-linecap="round" stroke-linejoin="bevel" stroke-miterlimit="10" d="M709.197,683.441
			c0.054,0.297-0.812,0.054-0.92-0.325c-0.136-0.352,0.324-0.649,0.271-0.812l-0.108-0.081c-0.189-0.108-1.704-0.541-1.921-0.379
			c-0.486,0.298,1.38,2.138,0.487,2.786v-0.324c-0.352-0.46-0.568-1.515-1.163-1.785c-0.243-0.136-1.84-0.974-1.84-1.082
			l0.055-0.027l0.73-0.189c0.271-0.352-0.189-0.838-0.108-1.082c0.162-0.46,0.541,0.596,0.568,0.649
			c0.352,0.433,0.812,0.649,1.379,0.649c1.028,0,2.516-0.189,3.436-0.027c0.136,0.027,0.298,0.055,0.324,0.217
			C710.009,684.198,709.521,680.492,709.197,683.441z"/>
		<path fill="none" stroke="#D8D8D8" stroke-linecap="round" stroke-linejoin="bevel" stroke-miterlimit="10" d="M697.431,675.164
			c-0.352,0.081-1.516-1.326-0.92-1.218C696.592,673.946,697.755,675.109,697.431,675.164z"/>
		<path fill="none" stroke="#D8D8D8" stroke-linecap="round" stroke-linejoin="bevel" stroke-miterlimit="10" d="M698.566,677.652
			l0.054-0.487c-0.081-0.135-0.514-0.026-0.567-0.271c-0.027-0.216,0.757-0.324,0.919-0.271c-0.081,0.758,0.217,1.028,1.001,1.109
			c1.109-0.893,0.352,0.947,0.352,1.163c0,0.081,0.055,0.406,0,0.46c-0.081,0-0.297-0.189-0.324-0.217
			c-0.568-0.648-0.243-0.648-0.487-1.108C699.351,677.76,698.756,677.95,698.566,677.652z"/>
		<path fill="none" stroke="#D8D8D8" stroke-linecap="round" stroke-linejoin="bevel" stroke-miterlimit="10" d="M702.002,681.114
			c-3.382,0.677-5.572-3.219-2.948-1.082c0.433,0.353,2.488,0.92,3.002,0.758c0.596-0.217,0.379,0.027,0.893,0.189
			c0.162,0.027,0.325,0.027,0.46,0.108l0.081,0.054C703.273,681.384,702.272,681.06,702.002,681.114z"/>
		<path fill="none" stroke="#D8D8D8" stroke-linecap="round" stroke-linejoin="bevel" stroke-miterlimit="10" d="M694.293,678.436
			c-0.108,0.785,0.784,2.435-0.189,1.569C693.129,679.139,694.428,677.462,694.293,678.436z"/>
		<path fill="none" stroke="#D8D8D8" stroke-linecap="round" stroke-linejoin="bevel" stroke-miterlimit="10" d="M693.103,684.956
			c0.162,0.107,0.216,0.486,0.352,0.514c0.541,0.189,1.353-1.028,1.379-1.055c0.217-0.055,0.812,1.001,1.326,0.838
			c0.433-0.135,2.19-2.028,2.299-0.026c0.027,0.378-1.406,1.189-1.353,2.19c-0.108,0.217-0.757,0.703-0.405,0.974l0.271,0.027
			c0.405-0.324,1.812,0.055,1.758-0.649c0-0.162-0.379-0.324-0.324-0.757c0.054-0.46,0.379-0.73,0.324-1.325
			c0.055-0.434,1.244,0.271,1.759,0.188c0.567-0.107,1.189-0.946,1.46-0.946c0.163,0,0.379,0.298,0.379,0.46
			c-0.027,0.216-0.46,0.108-0.379,0.405c0.081,0.271,0.325,0.73,0.622,0.893c0.055,0.055,0.325,0.163,0.217,0.298h-0.162
			c-0.271-0.054-1.542,0.541-1.975,0.812c-0.812,0.541-2.354,1.84-3.408,1.677c-0.271-0.054-4.869-3.219-5.248-3.543
			c-0.081-0.055-0.271-0.189-0.271-0.271C691.642,685.199,692.805,684.928,693.103,684.956z"/>
		<path fill="none" stroke="#D8D8D8" stroke-linecap="round" stroke-linejoin="bevel" stroke-miterlimit="10" d="M689.938,682.115
			c-0.217-0.081-1.84-1.812-0.379-1.163l0.46,0.758c0.081,0.108,0.108,0.243,0.189,0.352l0.081,0.162l0.054,0.081
			C690.208,682.359,690.072,682.169,689.938,682.115z"/>
		<path fill="none" stroke="#D8D8D8" stroke-linecap="round" stroke-linejoin="bevel" stroke-miterlimit="10" d="M677.873,669.428
			c0.866,0.136,1.109,1.488-0.026,0.596C676.548,669.023,677.197,669.293,677.873,669.428z"/>
		<path fill="none" stroke="#D8D8D8" stroke-linecap="round" stroke-linejoin="bevel" stroke-miterlimit="10" d="M674.546,669.781
			c0.244,0.216,0.271,1.108-0.026,0.974C674.33,670.646,674.086,669.375,674.546,669.781z"/>
		<path fill="none" stroke="#D8D8D8" stroke-linecap="round" stroke-linejoin="bevel" stroke-miterlimit="10" d="M669.759,669.807
			c0.297,0.433,0.107,0.758-0.379,0.325C668.649,669.483,669.515,669.483,669.759,669.807z"/>
		<path fill="none" stroke="#D8D8D8" stroke-linecap="round" stroke-linejoin="bevel" stroke-miterlimit="10" d="M673.545,656.202
			c-1.108-1.704,3.463,2.461,3.517,2.516c0.244,0.352,0.596,0.486,0.947,0.648c0.054,0.027,0.297,0.244,0.243,0.298h-0.189
			c-0.649,0-1.568-1.244-2.84-1.325c-0.893-0.081,0.486,0.757,0.162,0.865c-0.324,0.081-0.622-0.46-0.92-0.486
			C671.977,658.366,673.626,657.446,673.545,656.202z"/>
		<path fill="none" stroke="#D8D8D8" stroke-linecap="round" stroke-linejoin="bevel" stroke-miterlimit="10" d="M679.388,658.338
			c0.379,0.46,0.73,0.865,1.028,1.082"/>
		<path fill="none" stroke="#D8D8D8" stroke-linecap="round" stroke-linejoin="bevel" stroke-miterlimit="10" d="M677.251,655.444
			c0.108,0.162,0.271,0.379,0.46,0.649l0.217,0.324c0.135,0.189,0.297,0.406,0.46,0.622c0.243,0.325,0.486,0.649,0.729,0.974"/>
		<path fill="none" stroke="#D8D8D8" stroke-linecap="round" stroke-linejoin="bevel" stroke-miterlimit="10" d="M679.117,658.013
			c-0.107-0.107-0.189-0.216-0.271-0.324l-0.459-0.649"/>
		<path fill="none" stroke="#D8D8D8" stroke-linecap="round" stroke-linejoin="bevel" stroke-miterlimit="10" d="M679.117,658.013
			c0.108,0.108,0.189,0.217,0.271,0.325"/>
		<path fill="none" stroke="#D8D8D8" stroke-linecap="round" stroke-linejoin="bevel" stroke-miterlimit="10" d="M680.416,659.42
			c-0.324-0.379-0.703-0.73-1.028-1.082"/>
		<path fill="none" stroke="#D8D8D8" stroke-linecap="round" stroke-linejoin="bevel" stroke-miterlimit="10" d="M680.416,659.42
			c0,0,0.054,0.027,0.081,0.054"/>
		<path fill="none" stroke="#D8D8D8" stroke-linecap="round" stroke-linejoin="bevel" stroke-miterlimit="10" d="M680.497,659.474
			c0.054,0.055,0.108,0.081,0.162,0.108c1.082,0.541,1.704,0.703,2.651,1.461c0.352,0.243,0,0.46-0.298,0.46
			c-0.271,0-1.785-0.46-2.002-0.649c-0.46-0.433-0.026-0.514-0.026-0.73C680.849,659.907,680.659,659.691,680.497,659.474z"/>
		<path fill="none" stroke="#D8D8D8" stroke-linecap="round" stroke-linejoin="bevel" stroke-miterlimit="10" d="M675.979,654.794
			c-0.486-0.054-2.109-0.919-2.109-1.542c0-0.433,0.567,0.515,0.649,0.189c0.054-0.189-0.46-0.893-0.541-1.082
			c-0.866-1.568,1.73,0.839,1.975,1.434C676.034,653.957,676.439,654.849,675.979,654.794z"/>
		<path fill="none" stroke="#D8D8D8" stroke-linecap="round" stroke-linejoin="bevel" stroke-miterlimit="10" d="M677.819,650.223
			c0-0.027-0.027-0.054-0.055-0.108"/>
		<path fill="none" stroke="#D8D8D8" stroke-linecap="round" stroke-linejoin="bevel" stroke-miterlimit="10" d="M677.143,649.52
			c-0.595-1.082-3.462-2.84-3.164-4.003c0.107-0.541,0.919,1.136,1.136,0.622c0-0.081-0.487-0.704-0.568-0.812
			c-0.135-0.244-0.054-0.541-0.189-0.785c-0.271-0.567,0.352-0.162,0.515,0c0.243,0.244,0.378,0.758,0.567,1.082
			c0.622,1.028,1.218,2.002,1.867,2.949c0.216,0.324,0.324,1.082,0.459,1.541l-0.162-0.189
			C677.521,649.818,677.197,649.601,677.143,649.52z"/>
		<path fill="none" stroke="#D8D8D8" stroke-linecap="round" stroke-linejoin="bevel" stroke-miterlimit="10" d="M585.471,641.594
			c-0.352,0.027-0.622-0.379-0.974-0.352c-0.189,0-0.676,0.595-0.866,0.352c-0.108-0.108,0.514-0.974,0.812-1.001
			c0.433-0.026,0.865-0.46,1.244-0.297c0.406,0.189-0.676,0.324-0.514,0.648c0.054,0.136,0.947,0.244,0.487,0.568L585.471,641.594z"
			/>
		<path fill="none" stroke="#D8D8D8" stroke-linecap="round" stroke-linejoin="bevel" stroke-miterlimit="10" d="M580.494,644.732
			c0-0.352-0.568-0.703-0.352-0.974c0.027-0.027,0.217,0.055,0.244,0.081l0.622,0.677
			C581.062,644.894,580.521,645.083,580.494,644.732z"/>
		<path fill="none" stroke="#D8D8D8" stroke-linecap="round" stroke-linejoin="bevel" stroke-miterlimit="10" d="M573.894,644.542
			c-0.162,0.541-0.676,1.38-1.082,0.325C572.542,644.218,574.137,643.813,573.894,644.542z"/>
		<path fill="none" stroke="#D8D8D8" stroke-linecap="round" stroke-linejoin="bevel" stroke-miterlimit="10" d="M573.731,650.115
			c-0.162,0.893-1.569,0.893-2.245,1.38c-0.784,0.541-0.919,2.732-1.109,1.271c-0.054-0.406-0.189-1.461,0.027-1.785
			c0.163-0.217,0.947-0.244,1.217-0.352C571.865,650.548,574.029,648.519,573.731,650.115z"/>
		<path fill="none" stroke="#D8D8D8" stroke-linecap="round" stroke-linejoin="bevel" stroke-miterlimit="10" d="M-70,583.654
			c1.785-0.108,3.733,0.217,5.572,0.189c3.462-0.108,7.222-0.893,10.685-0.541c2.705,0.243,5.383,1.298,8.169,1.434
			c1.353,0.054,2.651-0.352,3.949-0.325c0.947,0.027,1.785,0.649,2.705,0.758c0.784,0.081,1.65-0.405,2.407-0.487
			c1.46-0.107,2.786,1.353,5.248,0.839c1.434-0.298,2.516-0.946,3.868-1.379c0.487-0.163,1.163-0.027,1.704-0.136
			c0.649-0.108,2.408-1.731,3.03-2.245c0.514-0.405,1.596-1.244,2.272-1.271c0.893-0.054,1.894,0.596,2.813,0.677
			c1.515,0.135,2.597-0.975,4.138-0.568c1.407,0.352,2.895,1.812,4.193,2.516c1.244,0.649,2.921,0.324,4.274,0.812
			c1.163,0.433,2.245,1.325,3.354,1.704c3.057,1.055,7.736,0.622,11.009,1.839c0.947,0.353,3.598,2.624,5.031,4.247
			c0.352,0.406,0.649,0.785,0.812,1.055c0.054,0.108,0.082,0.189,0.108,0.271c0.189,0.541-0.162,1.948-0.568,3.598
			c-0.541,2.245-1.164,4.978-0.433,6.628c0.216,0.486,0.568,0.946,0.947,1.379c0.379,0.434,0.812,0.866,1.19,1.326
			c0.243,0.297,0.487,0.595,0.676,0.919c1.379,2.354,2.705,4.788,4.057,7.169c0.568,1.055,1.542,1.677,2.11,2.731
			c0.163,0.325,0.271,0.622,0.352,0.947c0.703,2.542,1.758,3.598,2.461,5.653c0.108,0.379,0.352,0.73,0.378,1.136
			c0.108,0.974-0.081,1.947-0.081,3.003c0.108,1.244,1.975,12.794,2.164,13.011c0.352,0.405,1.109,0.839,1.623,0.974
			c2.867,0.865,6.14,1.19,9.007,2.245c0.758,0.271,1.515,0.92,2.245,1.136c2.002,0.568,2.705-0.729,4.247-0.784
			c1.379-0.026,2.705,0.893,4.22,0.866c1.19-0.027,2.164-1.028,3.3-1.218c0.378-0.054,0.73-0.135,1.082-0.216
			c0.676-0.136,1.353-0.271,2.002-0.434c1.596-0.405,3.111-0.865,4.896-1.515c1.812-0.676,3.787-1.055,5.599-1.731
			c0.704-0.271,1.271-0.919,1.948-1.189l4.761-1.948c3.138-1.271,6.952-1.055,9.955-2.245c2.137-0.865,4.057-2.109,6.167-2.921
			c3.517-1.38,9.333-1.325,13.038-0.866c4.707,0.568,9.521,1.597,13.985,3.246c2.597,0.947,5.058,2.516,7.709,3.436
			c2.029,0.73,4.518,0.73,6.465,1.515c4.058,1.623,7.601,3.327,11.902,4.437c2.001,0.514,3.949-0.324,5.951-0.217
			c2.597,0.136,4.788,2.11,7.412,2.191c1.163,0.027,2.461-1.028,3.408-0.947c1.163,0.136,1.839,1.407,2.597,1.623
			c0.595,0.189,1.325-0.135,1.92-0.107c0.243,0.026,0.541,0.107,0.757,0.162c0.866,0.216,1.758,0.703,2.597,0.839
			c0.704,0.135,1.461,0,2.164,0.188c1.136,0.352,2.38,1.407,3.543,1.488c1.326,0.054,2.678-1.407,4.653-1.082
			c1.082,0.162,3.165,1.894,4.22,2.516c3.354,1.921,4.707,2.407,8.494,2.759c1.434,0.136,2.705,0.703,4.166,0.406
			c1.948-0.406,3.598-1.407,5.599-1.678c2.083,0.866,2.759,3.842,4.003,4.166c1.055,0.271,2.11-0.676,2.949-0.568
			c0.352,0.027,0.622,0.162,0.838,0.379c0.135,0.081,0.216,0.189,0.325,0.324c0.081,0.108,0.162,0.244,0.243,0.379
			c0.135,0.244,0.298,0.515,0.46,0.758c0.081,0.135,0.162,0.271,0.271,0.352c0.081,0.081,0.189,0.189,0.297,0.243
			c0.027,0.027,9.251,2.407,9.846,2.489c1.082,0.135,2.137-0.298,3.192-0.027c1.055,0.243,1.677,1.163,2.678,1.379
			c0.73-0.162,1.406-0.541,2.056-0.893l0.703,0.189c1.839-0.703,7.601-0.946,8.792,0.785l0.054,0.676
			c-0.135,0.136-0.243,0.298-0.352,0.46c-0.108,0.162-0.216,0.352-0.297,0.514c0.054,1.137,0.893,1.812,1.488,2.678
			c0.189,0.271,0.352,0.568,0.46,0.92c0.352,1.137,0.541,2.272,0.73,3.382c0.216,1.136,0.433,2.271,0.893,3.381
			c0.406,1.027,1.001,1.947,1.731,2.732c3.408,3.732,9.711,4.977,14.336,4.733c1.407,0.757,1.217,2.597,3.165,2.597
			c0.758,0,2.327-1.001,3.219-1.244l0.649,0.216c0.595,0.649,0.541,1.488,0.947,2.191c0.812,0.217,1.894,0.73,2.678,0.649
			c0.649-0.055,1.515-0.541,2.137-0.784c1.948-0.758,3.868-1.65,5.789-2.381c1.894-0.703,4.409-0.784,6.141-1.866
			c0.649-0.379,1.542-1.353,2.326-2.272c0.46-0.541,0.893-1.082,1.19-1.461l0.704,0.027c4.03,3.138-0.298,4.599,3.435,7.628
			c0.785,2.137,0.676,5.004,1.245,7.304c0.162,0.757,0.433,1.434,0.838,2.028c0.135,0.162,0.271,0.325,0.433,0.433
			c0.487,0.379,1.136,0.568,1.731,0.649c2.435,0.325,20.828,1.569,22.019,0.92c2.488,0.622,2.272,2.083,3.949,2.624
			c1.812,0.622,4.49-0.217,6.411-0.217c1.839,0,3.002,1.028,4.625,1.38c0.325,0.081,7.385-3.489,9.143-3.246
			c2.624,0.379,3.76,3.003,6.167,3.977c2.11,0.838,4.22-0.162,6.14,0.46c0.406,0.135,0.676,0.271,0.866,0.46
			c0.081,0.081,0.135,0.135,0.189,0.188c0.217,0.271,0.352,0.596,0.649,0.975c0.568,0.703,1.109,0.486,1.839,0.703
			c1.055,0.352,1.379,1.379,2.272,1.92c0.893,0.541,2.489,0.379,3.544,0.73c2.813,0.92,9.359,2.381,11.469,4.058
			c0.676,0.568,1.298,1.542,2.002,2.191c0.919,0.162,2.705,0.054,3.435,0.648c0.217,0.189,0.352,0.406,0.487,0.649
			c0.108,0.244,0.189,0.541,0.27,0.839c0.433,1.866,0.487,4.544,5.14,5.626c0.135,0.163,0.244,0.325,0.352,0.487
			c0.325,0.514,0.568,1.082,0.947,1.515h0.027c1.515,1.677,3.895,1.19,5.653,2.191c0.378,0.243,0.73,0.595,1.082,0.946
			c0.189,0.189,0.352,0.379,0.541,0.541c0.189,0.162,0.378,0.325,0.595,0.46c1.109,0.703,2.57,0.974,3.814,1.434
			c7.844,2.895,15.716,0.758,23.182-2.164c0.73-0.298,1.298-0.812,2.028-1.082c3.084-1.108,7.439-2.164,9.981-4.328
			c0.271-0.216,1.245-0.486,1.677-0.73c1.19-0.703,3.598-2.218,4.734-3.029c1.082-0.757,2.786-0.893,3.841-1.623
			c5.112-3.57,9.549-8.061,14.499-11.875c1.758-1.353,3.3-2.407,4.896-3.922c0.406-0.379,0.812-0.92,1.244-1.434
			c0.108-0.136,0.216-0.271,0.325-0.379c0.324-0.379,0.649-0.703,1-0.893c1.245-0.73,2.813-1.406,3.868-2.435
			c1.271-1.271,2.218-3.57,2.921-4.354c0.216-0.244,0.46,0.026,0.595,0.189c0.649,0.676,1.082,0.974,2.083,0.812
			c0.054,0,4.139-3.625,4.463-3.95c0.352-0.352,2.272-2.299,2.191-2.597c-0.054-0.297-0.379-0.271-0.325-0.676l0.189-0.622
			c-0.027-0.027-0.027-0.081-0.082-0.055c-0.108-0.081-0.352,0-0.595,0.082c-0.271,0.081-0.541,0.188-0.541,0.026
			c0.081-0.081,0.162-0.189,0.271-0.271c0.081-0.054,0.135-0.081,0.189-0.135c0.271-0.217,0.568-0.379,0.649-0.487
			c0.081-0.135,0-0.514,0.216-0.568c0.379-0.107,0.893,1.056,1.407,1.001c0.162,0,2.976-1.894,3.192-2.109
			c1.623-1.678,4.03-4.707,5.815-5.951c0.244-0.162,0.73-0.217,0.893-0.433c0.108-0.108,1.082-2.083,1.136-2.11
			c1.569-0.784,1.271-0.081,1.758-0.595c0.081-0.108,0.189-0.243,0.352-0.433c0.082-0.108,0.189-0.217,0.271-0.352
			c0.082-0.136,0.189-0.271,0.325-0.434h0.027c0.163-0.216,0.541-0.243,0.676-0.378c0.082-0.108-0.027-0.271-0.135-0.46
			c-0.081-0.189-0.189-0.379-0.135-0.514c0.054-0.108,1.894-1.65,2.029-1.705h0.027c0.027,0,0.081,0.027,0.081,0.082
			c0.054,0.107,0.027,0.352,0,0.622c0,0.324-0.054,0.676,0.027,0.865c0.163,0.46,1.894,4.247,1.948,4.273
			c1.488,0.785,4.436,1.245,6.086,1.245c0.405,0,2.056-0.055,2.11,0.297c0.108,0.515-1.407,0.785-1.542,1.082
			c-0.379,1.001-0.541,1.407-0.649,2.489c-0.487,0.567-0.947,1.055-0.73,1.866c0.243,0.865,0.947,0.216,1.487,0.405
			c0.244,0.081,0.649,0.596,1.001,0.487c0.054-0.027,0.108-0.055,0.108-0.108c0.054-0.081,0.027-0.189,0-0.298
			c0-0.107-0.054-0.243,0.027-0.352c2.002,0,2.949-1.217,3.408-0.893c0.082,0.055,0.135,0.136,0.163,0.244
			c0,0.026-0.135,0.135-0.244,0.297c-0.081,0.055-0.135,0.162-0.189,0.271c-0.135,0.244-0.135,0.487,0.244,0.568
			c0.108,0.027,0.406-0.298,0.514-0.081c0.135,0.216-0.081,0.541,0.027,0.757c0.108,0.189,0.514,0.136,0.676,0.081
			c0.297-0.107,2.678-3.408,3.273-3.813c0.325-0.243,1.163,0.271,1.46-0.162c0.758-1.109-1.163-1.569,0.947-2.164
			c0.514-0.136-0.135,0.946-0.054,1.244c0.027,0.054,0.027,0.135,0.054,0.243c0.054,0.271,0.135,0.649,0.271,0.974
			c0.217,0.568,0.541,1.028,1.109,0.785c0.622-0.271,0.216-2.976,0.216-3.489c0-0.515,0.487-0.271,0.703-0.353
			c0.027,0,0.054-0.054,0.054-0.081c0,0,0,0,0-0.026c0-0.108-0.271-0.352-0.487-0.839c-0.108-0.027-0.46,0.243-0.73,0.217
			c-0.081,0-0.297-0.027-0.541-0.082c-0.081,0-0.162-0.026-0.243-0.026c-0.163-0.027-0.298-0.055-0.433-0.081
			c-0.162-0.027-0.297-0.027-0.325-0.027c-0.324,0.135-1.677,2.245-2.786,1.947c-1.136-0.297-0.135-0.73,0.514-1.136
			c0.162-0.108,0.325-0.217,0.406-0.298c0.108-0.108,0.081-0.216-0.135-0.297c-0.595-0.217-0.893,0.297-1.379,0.433
			c-1.867,0.514-3.192,0.622-5.031,0.324c-0.217-0.027-0.785-0.027-0.757-0.352c0-0.054,0.027-0.081,0.054-0.108
			c0.135-0.216,0.73-0.352,0.947-0.379c1.948-0.324,10.306-5.707,11.199-7.573c0.216-0.487,0.622-0.974,0.947-1.461
			c0.108-0.162,0.216-0.324,0.297-0.487c0.866-1.623,1.596-3.598,2.191-5.626c0.568-2.002,1.055-4.058,1.46-5.843
			c0.189-0.92,0-3.029-0.325-3.922l-0.433-1.299c-0.081-0.162-0.216-0.324-0.244-0.622c0.135-0.027,0.271,0.054,0.379,0.189
			c0.135,0.162,0.297,0.433,0.406,0.676c0.108,0.271,0.189,0.487,0.216,0.622c0.027,0.136,0.054,0.298,0.081,0.46
			c0.027,0.298,0.027,0.622,0.108,0.92c0.027,0.162,0.054,0.298,0.135,0.433c0.352,0.73,2.678,4.247,3.652,3.354
			c0.189-0.162-0.704-0.405-0.974-0.649c-0.541-0.46-0.947-1.298-1.325-1.894c-0.704-1.189-0.947-3.868-2.191-4.544
			c-0.082-0.46,0.459-1.082,0.838-1.299c2.38-0.162,3.3,2.435,4.652,3.625c1.353,1.217,6.005,3.191,7.817,3.327
			c1.245,0.081,3.219-0.839,4.49-1.163c1.704-0.433,3.625-0.541,5.248-1.19c3.246-1.271,6.33-2.354,9.603-3.489
			c1.839-0.622,4.058-2.056,5.897-2.354c0.974-0.162,4.707-2.137,5.789-2.678c2.597-1.271,5.708-1.488,8.385-2.624
			c1.434-0.595,3.652-0.839,4.923-1.649c0.703-0.46,1.325-0.568,1.731-0.568c0.352,0,0.487,0.108,0.244,0.162
			c-1.298-0.108-2.597,1.515-3.138,1.65c-0.379,0.107-0.866,0-1.299,0.107c-0.974,0.271-1.839,1.271-2.732,1.516
			c-1.785,0.486-3.354,0.541-4.95,1.406c0,0-0.027,0.027-0.054,0.081c-0.027,0.027-0.082,0.108-0.135,0.217
			c-0.027,0.081-0.082,0.162-0.163,0.271c-0.243,0.405-0.595,0.974-1,1.353c-0.108,0.107-0.189,0.188-0.298,0.243
			c-1.028,0.649-2.353,0.812-3.273,1.406c-0.568,0.352-1.055,0.92-1.623,1.299c-0.271,0.162-0.487,0.433-0.812,0.541
			c-1.677,0.486-3.354,1.055-4.896,1.894c-0.108,0.054-0.189,0.135-0.297,0.216c-0.081,0.055-0.189,0.162-0.298,0.298
			c-0.108,0.108-0.216,0.243-0.324,0.379c-0.217,0.271-0.406,0.567-0.623,0.865c-0.324,0.46-0.622,0.893-0.919,1.19
			c-0.108,0.108-0.244,0.216-0.352,0.298c-0.216,0.162-0.406,0.216-0.595,0.243c-0.325,0.054-0.622-0.027-0.947,0.054
			c-0.081,0.027-0.162,0.055-0.271,0.108c-0.162,0.081-0.297,0.189-0.406,0.324c-0.325,0.379-0.46,0.866-0.812,1.163
			c-0.108,0.108-0.325,0.163-0.487,0.217c-0.92,0.271-2.245,0.054-3.083,0.595c-0.758,0.487-1.488,1.353-2.462,1.516
			c-0.622,0.081-1.109-0.622-1.65-0.758c-0.595-0.162-0.757,0.541-1.434,0.352c-0.703,0.325-0.812,1.136-0.947,1.812
			c-0.108,0.595-0.568,1.163-0.622,1.731c-0.108,1.027,0.919,0.216,1.407,0.297c0.487,0.081,0.568,0.785,1.109,0.704
			c0.406-0.082,0.568-0.704,0.947-0.649c0.243,0.026,0.271,0.541,0.487,0.946c0.054,0.081,0.108,0.189,0.162,0.217
			c0.189,0.216,0.46,0.298,0.893,0.135c0.73-0.297,2.678-0.703,2.759-0.757c0.244-0.136,0.352-0.46,0.595-0.541
			c0.487-0.189,1.407,0.108,2.056-0.162c0.514-0.189,0.812-0.649,1.028-1.163c0.081-0.217,0.163-0.434,0.216-0.649
			c0.108-0.325,0.163-0.649,0.244-0.947c0.054-0.297,0.135-0.567,0.244-0.757c0.162-0.325,0.406-0.433,0.812-0.108
			c0.378,0.298,0.271,0.649,0.838,0.839c0.703,0.271,1.975,0.622,2.516,1.298c-0.027,0.136,0.135,0.487,0.379,0.893
			c0.378,0.677,0.946,1.434,1.109,1.325c0.027-0.026,1.001-2.434,1.623-3.057c0.568-0.595,1.19-0.567,2.083-0.729
			c0.352-0.487-0.297-1.353,0.108-1.84c0.244-0.271,0.947-0.324,1.271-0.568c0.784-0.567,2.029-2.38,2.759,0.46
			c0.595,1.597,2.435,0.081,3.165-0.108c0.46-0.107,0.108,0.677,0.622,0.785c1.244,0.271,1.379-0.433,2.056-0.352
			c1.136,0.189,1.055,2.894,2.57,2.245c0.054-0.027,0.054-0.081,0.081-0.163c0.027-0.107,0.054-0.216,0.081-0.352
			c0.054-0.271,0.135-0.567,0.406-0.757c0.595-0.46,2.029-0.974,2.678-1.434c0.081-0.108,0.135-0.162,0.189-0.217
			c0.135-0.135,0.081-0.433,0.054-0.703c-0.027-0.298-0.054-0.622,0.082-0.839c0.027-0.054,0.081-0.107,0.162-0.162
			c0.081-0.027,0.162-0.054,0.271-0.054c0.649-0.055,1.136,0.838,1.353,0.838c0.352,0,0.378-0.838,0.866-0.541
			c0.271,0.163,0.812,0.866,1.19,1.245c0.054,0.081,0.135,0.107,0.162,0.162c0.054,0.026,0.108,0.054,0.163,0.054
			c1.001,0.081,2.435-2.516,2.516-3.327c0.027-0.271-0.081-0.514-0.216-0.73c-0.135-0.271-0.271-0.514-0.189-0.812
			c0.081-0.352,0.46-0.865,0.866-1.406s0.812-1.136,1-1.569c0.406-0.974-0.189-1.649-0.162-1.73c0.054-0.189,0.406,0.216,0.73,0.189
			c1.434-0.136,0.216-0.434,2.976-0.217c0.784,0.054,1.244-0.379,2.001,0.081c1.92,1.109,0.947,3.841,3.625,2.867
			c0.433-0.162,1.298-1.027,1.461-1.487c0.595-1.515-1.65-0.136-1.785-0.568c-0.082-0.243,1.109-1.38,1.244-1.353
			c0.297,0.055,0.866,1.001,1.001,0.677c0.271-0.758-1.353-1.163-1.596-1.38c-0.027,0-0.027,0-0.027,0
			c-0.082-0.081-0.135-0.162-0.189-0.243c-0.379-0.677-0.244-1.867-0.893-2.489c-2.408-2.137-5.653-2.516-8.521-3.57
			c-2.38-0.865-3.922-0.73-3.922-0.946c0-0.108,0.406-0.298,1.244-0.758c3.246-1.731,7.385-1.785,11.09-1.515
			c4.436,0.324,10.577,3.273,14.904,4.733c0.676,0.244,1.164,0.73,1.731,1.028c2.407,1.163,4.842,2.218,7.25,3.408
			c0.541,0.271,0.974,0.92,1.515,1.19c5.626,2.786,11.848,9.17,18.502,9.17c1.163,0,2.354-0.027,3.517-0.217
			c2.895-0.812,12.47-3.165,14.688-4.355c0.839-0.459,1.678-0.919,2.517-1.406c0.838-0.486,1.649-1.001,2.461-1.542
			c0.784-0.541,1.569-1.082,2.326-1.649c0,0,0,0,0.027,0c0.73-0.596,1.461-1.19,2.137-1.812h0.027c0.027,0,0.027-0.027,0.054-0.027
			c0.055-0.054,0.136-0.081,0.217-0.108c0.243-0.054,0.568-0.081,0.839-0.107c0.162-0.027,0.27-0.055,0.378-0.082
			c3.706-1.379,4.193,0.515,6.844,2.219c0.487,0.297,2.488,2.65,2.029,3.083c-0.244-0.297-0.73-1.108-0.893-0.812
			c-0.027,0.027,0,0.082,0.026,0.163c0.081,0.189,0.189,0.46,0.217,0.541c0.108,0.405,0.297,1.055,0.514,1.623
			c0.081,0.216,0.162,0.433,0.243,0.622c0.027,0.081,0.081,0.162,0.108,0.243c0.92,1.704,2.137,3.273,3.165,4.923
			c0.352,0.568,0.676,1.137,0.974,1.704c0.406,0.784,1.353,1.515,1.894,2.191c0.514,0.676,0.784,1.487,1.299,2.164
			c1.353,1.73,4.625,2.38,6.356,3.705c1.758,1.353,3.057,3.273,4.625,4.843c0.947,0.946,2.435,1.434,3.544,2.137
			c0.189,0.108,1.217,0.352,1.163,0.595c-0.027,0.081-0.081,0.108-0.189,0.108c-0.595,0-2.299-0.893-2.597-1.028
			c-2.624-1.298-5.193-3.002-7.357-4.923c-0.622-0.567-1.001-0.73-1.785-0.974c-0.081-0.027-0.677-0.243-0.677-0.324
			c-0.026-0.163,0.46-0.055,0.515-0.055c0.216,0.027,2.299,1.028,1.189-0.243c-0.812-0.92-1.325-0.433-2.218-0.514
			c-2.002-0.136-2.245-2.056-3.625-2.786c-0.378-0.217-0.893-0.189-1.271-0.325c-0.135-0.433-1.217-1.894-1.487-2.353
			c-0.054-0.108-0.405-0.596-0.541-0.325c-0.027-0.027-0.027,0-0.027,0s0.055,0.108,0.108,0.271c0,0.027,0.027,0.108,0.055,0.189
			c0.026,0.136,0.081,0.271,0.107,0.405c0.081,0.298,0.108,0.596-0.081,0.623c-0.054,0-0.108,0-0.135-0.055
			c-0.162-0.135-0.217-0.514-0.271-0.838c-0.027-0.217-0.055-0.434-0.081-0.487c-0.136-0.406-0.73-0.649-0.596-1.163
			c0.46-0.649-1.001-1.596-1.325-2.407c0-0.027-0.027-0.081-0.081-0.136c-0.081-0.108-0.189-0.243-0.243-0.352
			c-0.055-0.108-0.081-0.189-0.027-0.217c0.298,0.108,1.353,1.271,1.515,0.894c0.054-0.73,0.893,0.162,1.055,0.243
			c0.244-0.108-0.054-0.433-0.46-0.784c-0.107-0.108-0.216-0.189-0.324-0.271c-0.433-0.379-0.893-0.704-0.946-0.785
			c-0.081-0.135-0.081-0.297-0.108-0.46c-0.027-0.188-0.055-0.378-0.162-0.567c-0.325-0.46-0.839-0.812-1.19-1.218
			c-0.406-0.46-0.73-1.704-1.163-2.354c-0.081-0.107-0.136-0.216-0.189-0.297c-0.108-0.217-0.162-0.406-0.217-0.596
			c-0.026-0.081-0.026-0.162-0.054-0.271c-0.027-0.162-0.054-0.352-0.081-0.541c-0.027-0.271-0.081-0.541-0.189-0.838
			c-0.189-0.515-0.541-1.109-1.299-1.84c-0.297-0.297-0.676-0.622-1.108-0.946c-0.189-0.136-1.461-1.407-1.678-1.028
			c-0.107,0.136,0.487,0.352,0.379,0.596c-0.135,0.405-0.946-0.136-1.027-0.379c-0.515,0.405-1.082,0.243-1.218,0.433
			c-0.108,0.162,0.108,0.839-0.324,0.974c-0.379,0.108-0.649-0.433-1.028-0.081c-0.189,0.162-0.216,0.406-0.216,0.622
			c0,0.081,0,0.162,0,0.243c-0.649,0.812-0.487-0.703-1.19-0.135c-0.243,0.189,0.027,0.405,0.108,0.703
			c0.054,0.108,0.054,0.217,0,0.324c-0.055,0.163-0.352,0.623-0.487,0.947c-0.081,0.162-0.108,0.298-0.054,0.324
			c0.541,0.298,1.244-0.595,1.434-0.324c0.271,0.379-0.596,1.028-0.541,1.515c0.135,1.299,1.353,1.812,1.73,2.435
			c0.487,0.784-0.271,1.244-0.216,1.731c0.108,0.92,0.433,0.189,0.054,1.379c-0.054,0.217,1.082,1.516,0.515,1.678
			c-0.271,0.081-0.623-1.299-0.704-1.434c-0.107-0.189-0.271-0.434-0.486-0.622c-0.108-0.108-0.217-0.217-0.325-0.325
			c-0.595-0.514-1.298-0.92-1.894-0.92c-0.486-0.107,0.406-1.812-0.054-2.082c-0.974-0.568-2.056,3.219-1.298,3.813
			c0.243,0.162,0.514-0.486,0.676-0.595c0.406-0.217,0.324,0.433,0.541,0.433c0.379,0,1.109-0.649,1.677-0.108
			c-0.271,2.11-1.487,0.406,0.379,3.463c0.108,0.162,1.136,0.107,1.38,0.081c0.081,0.352,0.026,0.567-0.189,0.703
			c-0.055,0.054-0.136,0.081-0.217,0.108c-0.919,0.189-3.083-0.785-3.435-0.622c-0.46,0.189-0.406,0.865-0.027,1.136
			c-0.055,0.271,0,0.433,0.081,0.568c0.162,0.324,0.514,0.405,0.324,0.838c-0.297,0.622-2.083,2.056-1.46,3.192
			c0.324,0.622,3.11,0.324,3.002,1.027c-0.081,0.487-1.434,0.189-1.704,0.082c-0.865-0.325-1.758,0.162-2.516,0.216
			c-0.379,0.054-0.703-0.46-1.055-0.514c-0.162-0.027-0.703,0.379-0.784,0.514c-0.136,0.162-0.163,0.324-0.163,0.46
			c0,0.054,0,0.135,0.027,0.217c0.027,0.135,0.027,0.297-0.054,0.459c-0.027,0.082-0.136,0.189-0.244,0.298
			c-0.107,0.108-0.189,0.189-0.216,0.271c-0.162,0.703,1.217-0.162,1.434,0.108c0.243,0.324-0.217,0.568-0.108,0.784
			c0.081,0.189,0.433,0,0.514,0.189c0.244,0.487-1.785,0.514-1.839,0.974c0,0.189,0.784,1.028,0.865,1.542
			c0.162,1.325-2.38,0.622-2.569,1.055c-0.217,0.541,0.135,3.598,0.703,3.842c0.162,0.054,0.514-0.217,0.703-0.244
			c2.056-0.324-0.622-1.325,1.001-1.758c1.028-0.298,0.946,1.325,1.163,1.568c0.352,0.353,0.406-0.514,1.001-0.405
			c0.189,0.054,1.109,0.703,1.271,0.865c0.946,1.001-0.73,1.975,1.244,3.246c0.865,0.568,2.109,0.758,3.057,1.218
			c0.298,0.893,1.001,1.542,0.893,0.648c1.055-0.188,1.082-2.623,1.623-2.731c0.027,0,0.054,0,0.054,0
			c0.055,0,0.108,0.027,0.136,0.054c0.081,0.108-0.027,0.46-0.162,0.758c-0.108,0.216-0.189,0.433-0.189,0.514
			c-0.027,0.298,0.054,0.595,0.026,0.92c-0.026,0.324,0.189,0.405,0.46,0.514l0.271,0.46c0.217,1.406-1.244,0.271-1.379,0.406
			c-0.298,0.352,0.378,0.784,0.703,0.757c0.676,0.352-0.244,0.514-0.325,0.73c-0.054,0.081,0.46,0.92,0.515,0.946
			c0.514,0.244,0.541-0.297,0.622-0.378c0.189-0.136,0.865,0.162,1.136-0.027c0.46-0.298-0.514-0.92,0.162-0.784
			c1.056,0.189-0.567,1.325-0.324,2.19c0.433,1.569,1.082,1.407,1.839,0.298c0-0.081-0.405-2.137,0.353-1.487
			c0.135,0.107-0.136,0.622-0.055,0.865c0.136,0.46,0.784-0.217,1.028-0.406c1.704-1.298,0.703-3.813,4.301-3.813
			c0.379,0,0.946,0.865,0.92,1.19c-0.027,0.757-1.353-1.056-1.082,0.324s1.758,0.595,2.326-0.108
			c0.541,0.162,1.515,0.46,1.568,0.568c0.108,0.189-0.919,2.38-0.703,3.138c0.027,0.081,0.055,0.135,0.108,0.189h0.027
			c0.541,0.405,0.378-0.974,0.919-1.109c0.596-0.189,0.189,0.649,0.136,0.812c-0.108,0.379-0.162,0.622-0.217,0.812
			c-0.054,0.162-0.081,0.271-0.162,0.406c-0.081,0.135-0.162,0.271-0.298,0.459c-0.081,0.108-0.162,0.217-0.243,0.325
			c-0.081,0.216-0.054,0.433,0.055,0.649c0,0,0.026,0,0.026,0.026c0.081,0.189,0.244,0.352,0.379,0.515
			c0.108,0.162,0.243,0.297,0.271,0.405c0,0.027-0.812,3.327-0.812,3.679c-0.487,0.379-0.676-0.541-1.109-0.324
			c-0.243,0.108-0.243,1.379,0.92,1.19c0.108-0.027,0.189-0.055,0.298-0.108c0.324-0.244,0.541-0.677,0.757-1.001
			c0.352-0.568,0.704-0.839,1.597,0.595c0.271,0.406,0.405,0.947,0.324,1.407c-0.054,0.162-0.271,0.46-0.054,0.622
			c0.189,0.135,0.703-0.568,0.784,0.135c-0.243,0.784-1.812,2.029-2.326,2.354c-0.189,0.352,1.406,1.109,1.623,1.136
			c0.73,0.081,1.082-0.919,2.056-0.081c1.163,1.082,0.324,6.303,4.518,3.354c1.434-1.001-1.353-0.839-1.678-1.109
			c-0.026,0-0.026,0-0.026,0c-0.487-0.405-0.379-0.974-0.379-1.46c0-0.163-0.027-0.353-0.081-0.487
			c-0.027-0.027-0.055-0.081-0.081-0.108c-0.027-0.027-0.055-0.054-0.108-0.108c-0.244-0.189-0.568-0.324-0.596-0.352
			c-0.189-0.297,0.027-0.703,0.136-1.055c0.054-0.217,0.352-0.162,0.541-0.135c0.92,0.135,3.3,2.407,3.787,2.271
			c1.189-0.352-0.839-2.164-0.812-2.271c0-0.082,0.405-0.082,0.46-0.055c0.271,0.081,2.19,0.108,2.082-0.352
			c-0.026-0.162-1.785-0.622-1.785-0.758c0.136-0.324,0.73-0.271,1.001-0.271c0.541-0.054,0.703-0.486,1.055-0.514
			c0.541-0.054,0.541,0.73,0.73,0.866c0.108,0.107,0.189,0.107,0.244,0.081c0.135-0.108,0.081-0.596,0.054-0.73
			c-0.054-0.189-0.135-0.298-0.135-0.514c0.729-1.137,0.622-2.246,2.001-1.353c0.298,0.188,0.785,0,0.785,0.541
			c0,0.378-0.353,0.784-0.325,1.108c0.243,0.081,0.217,0.46,0.189,0.649c0.271,0.298,0.487-0.324,0.541-0.324
			c0.162,0,0.162,0.514,0.568,0.514c2.001,0,4.787-0.73,6.275-2.435c0.216-0.243,0.405-0.514,0.568-0.784
			c0.541-1.001-0.758-3.192-1.353-4.166c-0.108-0.135-0.73-0.514-0.73-0.514c0-0.596,1.136-0.217,1.379,0.054
			c0.649,0.406,0.596-0.379,0.812-0.433c0.812-0.352,0.325-1.028,0.352-1.353c0.055-0.703,0.947-3.219,0.866-3.706
			c-0.027-0.189-0.108-0.405-0.189-0.595c-0.189-0.406-0.433-0.758-0.622-1.109c-0.081-0.189-0.162-0.352-0.217-0.514
			c-0.054-0.217,0.189-0.46,0.027-0.677c-0.298-0.459-1.866-0.865-1.921-1.568c-0.054-0.974,2.164-1.461,0.568-2.569
			c-0.92-0.649-1.434-0.082-2.407-0.325c-0.73-0.216-1.434-1.271-1.948-1.434c-0.378-0.108-0.757-0.135-1.082,0.136l-0.486,0.271
			c0-0.244-0.189-1.109-0.189-1.109c0.379-0.243,6.952,1.298,7.655,1.542c0.567,0.216,1.677,0.379,2.245,0.379
			c0.108,0,0.541,0,0.676,0.107c0,0.055-0.026,0.108-0.054,0.217c-0.081,0.135-0.243,0.298-0.406,0.487
			c-0.162,0.188-0.378,0.405-0.567,0.595c-0.081,0.081-0.189,0.189-0.271,0.271c-0.162,0.162-0.271,0.298-0.298,0.352
			c-0.081,0.271-0.162,1.19-0.108,1.461l0.081,0.46c0.406-0.406,0.73-0.541,0.758-0.649c0.054-0.243-1.218-0.974,0.108-1.731
			l0.73,0.027l-0.244-0.487c0.298-0.054,0.812-1.568,1.244-0.649c-0.026,0.622-0.676,1.894,0.055,2.435
			c0.649,0.515,2.083,1.109,2.488,1.65c0.108,0.135,0.162,0.324,0.217,0.487c0.054,0.162,0.108,0.297,0.271,0.378
			c1.082,0.596,2.867,0.596,3.76,1.623c2.354,2.678,5.6,6.032,7.574,8.873c0.919,1.325,1.271,2.84,2.407,4.111
			c0.135,0.162,0.271,0.297,0.405,0.433c0.271,0.271,0.596,0.514,0.92,0.758c0.298,0.243,0.595,0.486,0.893,0.757
			c0.162,0.108,0.298,0.243,0.433,0.406c0.298,0.297,0.541,0.595,0.758,0.946c0.108,0.189,0.217,0.406,0.324,0.595
			c0.108,0.217,0.217,0.406,0.406,0.596c0.271,0.216,0.486,0.352,0.784,0.541c4.139,2.19,14.282,1.027,18.502-0.784
			c1.785-0.758,3.679-1.597,5.41-2.435c2.597-1.271,4.788-3.436,7.547-4.626c0.622-0.243,3.436-2.678,3.977-2.109
			c0.026,0.026,0.026,0.054,0.026,0.081c0,0.324-1.541,0.784-1.785,1.055c-1.947,1.921-4.49,2.624-6.384,4.166
			c-1.082,0.865-6.951,4.463-8.061,4.733c-0.812,0.217-1.677,0.108-2.543,0.324c-1.568,0.406-3.11,0.406-4.598,1.028
			c-0.055,0.027-1.488,0.189-1.353,0.568c0.188,0.486,3.191-0.406,4.084,0.135c0.055,0.054,0.108,0.108,0.162,0.189
			c0,0.054,0,0.108,0,0.162c0.027,0.027,0,0.081,0,0.108c0,0.135-0.026,0.298-0.054,0.46c-0.027,0.189-0.108,0.324-0.217,0.379
			c-0.107,0.054-1.46,0.162-1.244,0.595c0.298,0.514,3.327-0.054,3.841-0.298c0.406-0.216,0.704-1.217,1.109-1.298
			c0.243-0.055,1.136,0.676,1.975,0.541c2.516-0.406,4.22-3.354,6.303-4.68c0.487-0.325,1.596-0.325,1.894-0.515
			c0.405-0.27,0.649-0.811,1.244-0.865c0.46-0.027-0.108,0.596,0.324,0.433c1.028-0.352,1.786-0.378,3.003-0.378
			c0.541,0,0.812,0.243,1.299,0.243c0.243,0,0.405-0.136,0.648-0.136c-0.486,0.677-0.729,1.244-1.217,1.326
			c-0.081,0.026-0.649-0.406-0.677-0.027c-0.026,0.216,0.325,0.324,0.46,0.514c0.866,1.109,1.569-1.217,1.623-1.244
			c0.244-0.162,1.109-0.433,1.244-0.622c0.515-0.784-1.082-0.541-1.379-0.703c-0.027-0.027-0.081-0.055-0.081-0.081
			c-1.785,0.189,0.135-1.407,0.324-1.407c0.433,0.055,0.893,0.92,1.325,1.056c0.622,0.188,1.597,0.486,2.083,1.055
			c0.081,0.081,0.136,0.243,0.243,0.405c0.055,0.081,0.108,0.189,0.163,0.217c0.054,0.054,0.107,0.081,0.162,0.108
			c0.379,0.107,0.784-0.487,1.027-0.352c0.136,0.081,0.163,0.514,0.189,0.648c0.027,0.055,0.081,0.136,0.162,0.244
			c0.055,0.107,0.163,0.243,0.271,0.378c0.055,0.082,0.108,0.163,0.163,0.244c0.189,0.297,0.297,0.567,0.162,0.676
			c-0.108,0.081-0.243,0.055-0.352,0c-0.162-0.108-0.352-0.379-0.515-0.622c-0.271-0.405-0.514-0.784-0.784-0.676
			c-0.649,0.297,0.541,1.975,0.298,2.353c-0.162,0.217-1.028,0.055-1.325,0.163c0.135,0.352,1.325,0.162,1.596,0.297
			c0.676,0.352,2.056,1.245,3.029,1.082c0.055,0,1.244-1.866,1.19-2.056c-0.243-0.676-0.974-0.108-0.974-1.434
			c0.108-0.433,0.622-0.243,0.893-0.405c0.324-0.163,0.433-0.73,0.73-0.893c0.541-0.298,2.137,0.189,2.488-0.677
			c0.243-0.595-0.514-0.46-0.595-0.649c-0.108-0.352,0.486-0.919,0.433-1.189c0.081-0.46,0.433-0.271,0.703-0.515
			c0.054-0.054,0.081-0.135,0.135-0.216c0.108-0.244,0.163-0.677,0.108-1.461c-0.514,0.622-3.002,1.163-3.164,1.353
			c-1.623,2.083,1.298,3.354-1.812,2.569c-1.244-0.324-3.111,0.298-4.139-0.054c-0.541-0.217-0.541-0.487-1.056-0.703
			c-0.162-0.352,1.299-0.433,1.488-0.433c1.001-0.082,2.164-0.73,2.895-1.407c0.893-0.784,1.189-2.812,1.975-3.949
			c0.812-1.19,2.597-1.271,3.598-2.272c0.135-0.135,4.111-2.894,4.273-2.948c0.46-0.189,2.543-0.352,1.569,0.596
			c-0.46,0.054-2.083-0.46-2.083,0.648c0,0.271,0.812,0.677,1.027,1.028c0.568,0.893,0.758,2.028,1.245,2.948
			c0.459,0.812,2.001,2.624,2.678,3.517c0.162,0.217,1.027,0.947,1.027,1.109c0,0.271-0.919,1.298-1.406,1.271
			c-0.433-0.055-0.758-0.623-1.299-0.541c-0.486,0.081-0.595,0.622-0.703,0.648c-0.162,0.027-0.919-0.648-1.027-0.433
			c-0.379,0.839,3.191,2.624,3.191,2.624c0,0.027-0.081,0.487-0.216,1.055c-0.217,0.947-0.541,2.245-0.677,2.354
			c-0.027,0.054-0.108,0.108-0.162,0.189c-0.081,0.054-0.162,0.162-0.243,0.271c-0.189,0.271-0.325,0.568-0.217,0.758
			c0.027,0.054,0.054,0.081,0.108,0.135l3.977-1.055c0.405-0.325,0.676-1.001,1.189-1.082c0.839-0.136,1.975,0.514,2.624,0.514
			c0.514,0,0.189-0.758,0-0.946c-0.162-0.136-0.486-0.027-0.649-0.108c-0.486-0.379-1.325,0.352-1.46,0
			c-0.406-1.001,2.678-1.218,3.3-1.407c0.676-0.188,0.893-0.919,1.244-1.434c0.081-0.107,0.189-0.459,0.298-0.459
			c0.405,0,0.405,0.541,1.136,0.324c0.352-0.108,0.73-0.406,1.028-0.622c0.324,0.054-0.677,0.757-0.298,0.974
			c0.568,0.324,1.271-0.676,1.975-0.568c0.46,0.839,1.596,2.624,2.11,1.299c0.324-0.812-1.19-1.109-1.299-1.325
			c-0.081-0.244,0.758-0.108,0.946-0.325c0.271-0.379-0.324-0.405-0.324-0.595c0.081-0.784,1.947,1.434,1.758-0.243
			c-0.459-0.92-2.271-0.271-3.056-0.108c-0.244,0.054-0.541,0.297-0.812,0.405c-0.325-0.216,0.676-0.486,0.893-0.567
			c0.757-0.271,1.812-1.245,2.326-1.271c0.946-0.081,6.059,0.486,6.627,0.271c0.676-0.244-0.433-2.948-0.162-3.544
			c0.243-0.189,1.163,0.379,1.434,0.352c0.271-0.026,0.622-0.433,0.893-0.216c0.027,0.162-0.108,0.595,0,0.73
			c0.135,0.135,0.839-0.163,0.812-0.271c0-0.163,0.081-0.487,0.135-0.704c0.027-0.107,0.027-0.162,0.027-0.189
			c0-0.054-0.027-0.081-0.054-0.107c-0.027-0.055-0.055-0.081-0.108-0.108c-0.271-0.189-0.649-0.243-0.514-0.784
			c0.865-1.623,1.325,0.648,1.866,0.297c0.054-0.026,0.108-0.081,0.135-0.162h0.027c0.649,0,2.354,0.92,4.273,1.866
			c2.029,1.001,4.302,2.083,5.897,2.191c11.172,0.839,16.933-1.028,27.348-4.111c0.946-0.271,1.812-0.974,2.786-1.244
			c7.844-2.164,15.472-5.681,22.289-10.036c0.838-0.541,1.866-0.73,2.704-1.271c2.705-1.73,6.222-4.95,8.818-7.06
			c0.244-0.189,0.487-0.406,0.758-0.677c0.271-0.216,0.568-0.514,0.865-0.812c2.732-2.678,6.275-6.951,7.979-9.413
			c1.082-1.542,2.895-2.786,4.139-4.192c3.733-4.274,6.735-9.062,10.198-13.498c2.38-3.057,3.841-6.492,5.681-9.846
			c0.838-1.488,2.137-2.813,2.976-4.355c0.946-1.704,1.975-3.841,2.759-5.626c0.92-2.11,2.65-4.058,3.651-6.087
			c0.325-0.676,0.217-1.541,0.515-2.245c0.893-2.109,1.812-4.301,2.786-6.384c1.271-2.731,3.732-8.412,4.408-11.198
			c0.163-0.676,1.975-3.381,2.354-4.761c0.596-2.056,1.515-4.192,1.894-6.303c0.325-1.812,0.514-3.732,1.109-5.491
			c0.324-1.027,1.244-1.677,1.596-2.786c0.243-0.73,0.243-1.325,0.325-2.083c0.107-0.784,2.082-5.626,2.516-6.735
			c0.378-0.974,0.107-2.056,0.378-2.976c0.73-2.488,1.84-5.085,2.326-7.601c0.596-3.11,1.245-7.357,2.029-10.36
			c0.703-2.759,3.11-11.009,3.354-13.309c0.297-2.488,0.893-7.303,1.622-9.656c0.163-0.487,0.568-0.893,0.677-1.434
			c0.379-2.137,0.217-4.274,0.839-6.411c0.107-0.405,0.378-0.784,0.405-1.217c0.081-1.488-0.027-3.084,0.162-4.545
			c0.055-0.567,0.487-0.838,0.568-1.325c0.054-0.189,0-2.218,0-2.245c0.352-0.946,0.758-1.866,0.865-2.813
			c0.081-0.757-0.297-1.542-0.271-2.218c0.027-0.352,0.487-0.568,0.379-0.974c-0.081-0.243-0.514-0.352-0.379-0.677
			c0.081-0.189,0.73-0.162,0.974-0.648c0.136-0.298-0.135-0.515-0.107-0.649c0.054-0.243,0.433-0.325,0.514-0.568
			c0.324-0.974,0.487-2.19,0.676-3.219c0.406-2.002-0.216-8.872,0.434-10.36c0.514-1.217,1.839-1.055,2.786-1.812
			c0.514-0.378,2.65,2.543,3.164,2.841c0.649,0.433,0.92-0.703,0.975-0.73c0.216-0.162,0.729,0.135,1.244-0.324
			c0.946-0.839,3.083-3.598,3.354-4.788c0.434-1.921,1.082-4.652,0.839-6.601c-0.162-1.434-1.298,0.081-1.244-0.676
			c0.027-0.298,0.433-1.001,0.514-1.407c0.217-1.136-0.135-2.299-0.026-3.435c0.378-3.301,2.731-9.116,2.245-12.118
			c0-0.082,1.217-1.894,0.486-4.221c-0.108-0.378,0.189-1.136,0.487-1.434c0.107-1.92,1.108-1.596,2.354-2.407
			c0.216-0.135,0.27-0.514,0.514-0.622c0.162-0.054,0.46,0.217,0.649,0.081c0.081-0.054,2.082-4.111,2.163-4.463
			c0.055-0.298-0.352-0.677-0.162-0.947c0.325-0.378,1.38,1.028,1.407,0.487c0-0.027,2.271-4.166,2.461-4.68
			c0.108-0.324,0.596-4.382,0.622-4.923c0.055-0.92-0.567-2.218-1.108-2.813c-0.271-0.324-1.244,0-1.001-0.541
			c0.352-0.812,1.353-0.135,1.839-0.649c0.622-0.622,1.353-3.083,1.353-3.922c0.298-0.703,1.704-2.543,2.056-3.381
			c0.189-0.434-0.162-0.785-0.135-1.218c0.271-2.19,0.812-4.247,1.109-6.492c0.026-0.378,0.946-0.541,1.055-1.082
			c0.216-1-0.46-1.379,0.486-2.326c0.136-0.757,0.487-0.946,0.649-1.541c0.081-0.353-0.271-0.947-0.216-1.164
			c0.188-0.486,0.812-0.648,1.163-1.055c0.189-0.216,0.352-0.838,0.46-0.92c0.243-0.216,0.648,0.027,0.919-0.081
			c0.568-0.216,5.059-6.059,5.438-6.843c0.622-1.326,0.703-4.68,0.812-4.95c0.054-0.163,0.838-0.541,1.027-0.866
			c0.866-1.379,0.812-2.624,1.001-4.111c0.108-0.784,0.866-1.055,0.866-3.3c0.514-0.947-0.055-1.163,0.271-1.867
			c0.352-0.703,1.027-0.378,1.379-0.812c0.487-0.54,0.189-3.841,0.189-4.49c0-1.298,1.596-0.297,2.245-1.596
			c0.865-1.785-0.135-3.219,0.433-4.599c1.326-3.11,3.923-5.978,3.923-9.467c0-2.488,0.243-5.274-0.244-7.763
			c-0.081-0.514-1.487-1.082-1.082-2.191c0.217-0.595,2.922-0.947,3.354-0.757c0.189,0.081,0.271,0.649,0.487,0.568
			c0.107-0.027,0.162-0.378,0.162-0.46c0.405,0.054,0.676,0.568,0.784,0.595c0.568,0.216-0.054-1.217,1.325-0.46
			c5.248,2.868,5.491-6.6,5.708-6.762c0.135-0.135,0.784,0.081,0.946-0.433c0.081-0.244-0.297-1.136-0.054-1.488
			c0.217-0.298,0.946-0.379,1.163-0.704c0.162-0.216,0.217-0.893,0.405-1.028c0.271-0.162,1.731,0.866,2.11-1.217
			c0.352-1.866-2.218-1.596-2.083-3.516c0.677-1.38,0.703-2.651,1.028-3.625c0-0.054,0.622-0.541,0.703-0.649
			c0.271-0.406,0.135-1.001,0.217-1.461c0.162-0.838,0.838-1.975,0.865-2.759c0.081-1.19-0.839-3.409-0.839-3.517
			c0.027-0.487,0.244-0.73,0.055-1.244c-0.298-0.812-1.434-0.758-1.434-1.515c0-0.866,0.567-4.192,0.514-4.733
			c-0.081-0.623-0.298-1.326-0.027-1.948c0.325-0.757,1.84-1.407,2.191-2.921c0.352-1.434-0.189-4.193-0.162-4.301
			c0.026-0.406,0.514-0.433,0.433-0.92c-0.108-0.622-0.839-0.433-0.649-1.434c0.081-0.379,1.487-1.19,1.785-1.758
			c0.325-0.622-0.054-1.704,0.298-2.137c1.839-2.083,2.109,0.162,3.436,0.054c2.19-1.84,1.839-3.462,2.137-6.086
			c0.054-0.541,0.622-0.433,0.676-1.001c0.027-0.325-0.162-0.919,0-1.19c0.352-0.568,1.84-0.216,2.3-0.271
			c0.352-0.027,0.352-0.622,0.622-0.785c0.243-0.027,0.486,0.135,0.703,0.081c0.405-0.135,1.894-1.785,2.218-2.137
			c0.487-0.487,1.461-0.297,1.866-0.893c0.271-0.379,0.353-1.704,0.298-2.164c-0.054-0.676-1.515-3.408-1.217-3.706
			c0.297-0.297,1.055,0.487,1.379,0.623c0.677,0.271,1.326-0.487,1.948-0.649c1.894-0.487,3.895-0.568,5.68-1.271
			c1.056-0.406,4.112-4.977,5.627-6.113c0.486-0.352,1.704,0.487,2.272-0.459c1.271-2.002,0.729-6.032,0.729-8.277
			c0-3.922-4.111-13.525-5.572-17.637c-0.648-1.839,0-3.273-0.216-5.058c-0.162-1.515-1.325-3.002-1.84-4.463
			c-1.108-3.111-2.326-6.438-3.11-9.657c-0.162-0.703-0.054-2.083-0.162-2.435c-0.055-0.189-0.974-0.676-0.677-0.703
			c0.812,0,1.488-0.487,0.162-0.487c-0.433,0,0.568-0.46,0.649-0.73c0.136-0.379,0.055-1.217,0.055-1.623
			c0-1.731-0.541-4.517,0.162-6.032c0.379-0.812,1.515-1.244,1.812-2.083c1.027-2.759-3.138-6.438-0.487-8.737
			c0.514-1.325-0.893-1.623-0.839-2.705c0.082-1.028,0.92-0.649,0.975-2.38c1.704-0.162,1.136-1.298,1.541-2.353
			c0.217-0.622,0.975-1.055,1.19-1.677c0.244-0.784-0.189-1.812,0.244-2.57c0.648-1.19,3.002-1.271,3.138-2.921
			c0.297-3.11-3.138-7.195-3.949-9.9c-0.379-1.19,0.676-3.192,0.676-4.49c0-0.785-0.379-1.434-0.487-2.164
			c-0.135-1.028,0.136-2.137,0.108-3.165c-0.026-1.407-0.486-2.921-0.649-4.355c-0.026-0.325-0.162-0.757-0.162-1.082
			c0-0.541,0.406-1.217,0.703-1.65c0.163-0.812-0.729-1.379-1.271-1.839c-0.677-0.541-1.407-0.92-2.029-1.542
			c-0.946-1.001-1.894-3.598-2.895-4.247c-0.893-0.623-1.947-0.974-2.894-1.623c-0.136-0.271-0.163-0.649-0.136-0.947
			c-0.703-0.433-1.001-0.189-1.434-0.135c-2.11,0.162-0.622-1.001-2.948,0.487c-2.002-0.812,0.324-3.381-0.325-5.004
			c-0.378-1-3.245-1.785-3.543-2.624c-0.027-0.785,0.676-1.217,0.839-1.921l-0.541-0.433c-0.434,0.352-0.894,0.703-1.488,0.595
			c0.568-0.838,1.812-1.623,2.651-1.758c0.486-0.649,0.812-0.676,1.108-1.569c0.271,0,0.622-0.081,0.812-0.271
			c0.541-1.542,2.11-4.896-0.297-5.897c0.081-2.488,1.163-2.461,2.678-3.029c0.271-0.217,1.353-2.408,1.73-2.868
			c0.975-1.19,1.082-1.46,1.597-2.948c0.297-0.812,1.055-1.407,1.244-2.272c0.486-2.11-2.326-7.006-2.543-9.576
			c-0.298-0.46-0.812-0.649-1.027-1.19c0.189-0.838-0.055-1.434-0.866-1.758c0.568-0.649,3.842,1.082,5.519-0.108
			c0.162-0.757,1.434-1.298,1.92-1.975c2.11-2.84-0.026-3.49,3.761-6.6c0.081-1.19,2.976-6.113,4.003-6.627
			c0.136-0.433,0.352-2.001,0.541-2.218c0.46-0.054,1.38-0.676,1.596-1.082c0.163-1.298-1.027-3.002-1.434-4.247
			c-0.838-2.597-1.027-5.437-2.218-7.979c-0.92-2.002-2.678-3.706-3.706-5.626c-2.245-4.112-4.518-9.333-6.897-13.173
			c-1.515-2.489-5.031-4.03-4.652-7.385c0.189-1.731,1.596-1.947,2.407-3.192c0.757-1.136,0.379-2.137,1.65-3.002
			c0.865-0.568,2.894-0.866,3.272-1.271c0.866-1,0.568-3.246,1.623-4.247c0.865-0.838,2.435-0.649,3.084-1.812
			c0.46-0.865,0.189-2.218,0.703-2.921c2.678-3.841,5.843-2.651,7.438-4.274c1.65-1.704,2.354-4.273,3.868-6.113
			c1.569-1.893,2.597-0.919,4.192-1.596c2.029-0.838,1.786-2.705,5.41-3.922c0.622-0.541,0.758-1.46,1.515-1.866
			c1.137-0.568,2.976,0.378,4.004-1.163c0.893-1.38,0.405-3.598,0.812-4.301c0.676-1.244,1.542-0.757,1.704-2.813
			c0.243-2.84-0.974-2.813-1.731-4.68c-0.595-1.46,0.189-3.002,0.108-4.463c-0.054-0.893-0.865-1.677-0.595-2.542
			c0.107-0.378,0.567-0.703,0.784-1.028"/>
		<path fill="none" stroke="#D8D8D8" stroke-linecap="round" stroke-linejoin="bevel" stroke-miterlimit="10" d="M823.97,689.581
			c-0.866-0.46-2.786-2.597-4.572-3.436c-0.595-0.271-1.163-0.135-1.704-0.324c-2.164-0.784-4.625-2.083-6.572-3.327
			c-1.759-1.136-4.221-1.487-6.195-1.812c-0.188-0.026-0.757-0.379-0.757-0.649c0-0.054,0.027-0.081,0.081-0.135
			c0.92-0.703,13.85,4.733,15.392,5.896c0.974,0.73,2.488,1.38,3.3,2.272l1.299,1.325c0.188,0.352-0.082,0.379-0.244,0.325
			c-0.026-0.027-0.054-0.055-0.054-0.081"/>
		<path fill="none" stroke="#D8D8D8" stroke-linecap="round" stroke-linejoin="bevel" stroke-miterlimit="10" d="M803.222,679.924
			c-0.026-0.027-0.054-0.027-0.081-0.055c-0.514-0.297-1.163,0.108-1.623,0.027c-1.46-0.243-2.759-1.136-4.165-1.38
			c-1.461-0.216-3.084-0.243-4.545-0.107c-0.216,0.026-0.243,0.324-0.46,0.324c-0.216,0-0.271-0.379-0.433-0.324
			c-0.271,0.135-1.027,0.188-1.108,0.271c-0.136,0.081-0.325,0.595-0.46,0.595c-0.244,0-0.515-0.73-0.866-0.784
			c-0.297-0.055-0.784,0.107-1.108,0.107c-0.244,0-0.325,0.406-0.568,0.515c-0.189,0.054-0.946,0.081-1.055,0.243
			c-0.244,0.352,0.324,0.676,0.135,1.028c-0.054,0.107-0.271,0.216-0.379,0.243c-1.568,0.595-2.84,0.622-4.139,1.325
			c-0.784,0.406-1.352,1.136-1.975,1.759c-0.188,0.188-0.081,0.567-0.378,0.676c-2.543,0.92-5.302,2.002-7.357,3.841
			c-0.271,0.244-0.487,0.162-0.541-0.026c-0.055-0.082-0.055-0.217,0-0.353c0.107-0.297,0.838-0.893,1.108-1.081
			c0.92-0.73,2.57-1.435,3.679-1.921c3.544-1.515,8.765-6.141,10.955-6.897c0.92-0.325,8.386-0.244,9.521-0.027
			c0.487,0.081,0.975,0.433,1.542,0.541c0.541,0.081,4.328,0.946,4.49,1.055c0.46,0.352,0.487,0.46,0.325,0.46
			c-0.108,0-0.379-0.081-0.568-0.162"/>
		<path fill="none" stroke="#D8D8D8" stroke-linecap="round" stroke-linejoin="bevel" stroke-miterlimit="10" d="M811.932,686.119
			c0.055,0.433-0.54,0.649-0.622,0.162c-0.135-0.758,0.677-1.109,0.596-0.108"/>
		<path fill="none" stroke="#D8D8D8" stroke-linecap="round" stroke-linejoin="bevel" stroke-miterlimit="10" d="M808.957,682.737
			c0,0.027,0,0.027,0,0.055c0,0.352-0.785,0.567-0.568-0.189C808.47,682.278,808.983,682.413,808.957,682.737"/>
	</g>
</g>
</svg>
